<?xml version="1.0" standalone="no"?>
<!DOCTYPE svg PUBLIC "-//W3C//DTD SVG 20010904//EN"
 "http://www.w3.org/TR/2001/REC-SVG-20010904/DTD/svg10.dtd">
<svg version="1.0" xmlns="http://www.w3.org/2000/svg"
 width="512.000000pt" height="512.000000pt" viewBox="0 0 512.000000 512.000000"
 preserveAspectRatio="xMidYMid meet">
<metadata>
Created by potrace 1.14, written by Peter Selinger 2001-2017
</metadata>
<g transform="translate(0.000000,512.000000) scale(0.100000,-0.100000)"
fill="#000000" stroke="none">
<path d="M3915 5111 c-12 -5 -26 -15 -32 -22 -5 -8 -74 -165 -153 -349 -78
-184 -151 -355 -161 -380 -11 -25 -64 -148 -117 -275 l-98 -230 -447 -3 c-246
-1 -447 1 -448 5 -9 86 -47 235 -80 314 -26 65 -85 177 -98 189 -3 3 -20 25
-36 49 -48 71 -181 197 -270 256 -124 82 -297 152 -420 170 -22 3 -46 8 -54
11 -21 7 -228 6 -281 -2 -249 -35 -495 -162 -662 -343 -201 -216 -299 -479
-292 -779 10 -455 298 -850 732 -1006 78 -28 89 -30 205 -50 82 -13 249 -14
327 -2 25 4 87 19 139 32 l93 25 33 -38 c18 -21 43 -49 55 -63 12 -14 198
-231 413 -483 l392 -458 1 -563 1 -563 -276 -183 c-152 -101 -286 -195 -298
-209 -39 -45 -26 -119 26 -146 26 -13 110 -15 650 -15 442 0 627 3 645 11 34
16 58 68 50 108 -9 42 -36 63 -341 266 -139 92 -253 170 -254 173 -1 11 -1
1075 0 1094 1 13 254 315 534 638 12 14 114 133 227 265 113 132 214 251 226
265 36 41 336 392 384 449 25 29 56 65 68 79 131 149 289 337 300 359 7 12 12
31 12 43 0 29 -26 76 -47 86 -10 5 -237 11 -505 14 l-487 5 85 200 c47 110 89
209 94 220 10 23 13 30 160 377 l113 267 388 3 389 3 27 27 c38 38 38 98 0
136 l-27 27 -433 2 c-237 1 -441 -2 -452 -6z m-2646 -794 l1 -331 -234 234
-234 234 41 32 c46 37 159 94 232 119 50 17 158 42 182 42 9 0 12 -75 12 -330z
m403 280 c74 -27 209 -101 234 -128 14 -15 -3 -35 -208 -243 -123 -124 -226
-226 -228 -226 -3 0 -4 120 -3 267 1 148 3 293 3 324 l0 57 68 -13 c37 -7 97
-24 134 -38z m-777 -517 l230 -230 -329 0 -329 0 7 38 c23 143 61 239 139 360
23 34 44 62 47 62 3 0 109 -103 235 -230z m1219 167 c70 -110 117 -230 135
-346 l8 -51 -326 0 -326 0 230 230 c126 127 232 230 235 230 3 -1 23 -29 44
-63z m-1115 -632 c17 -20 31 -40 31 -44 0 -11 -361 -371 -371 -371 -12 0 -65
80 -102 156 -32 64 -51 118 -77 219 -20 81 -40 75 239 75 l249 0 31 -35z
m2261 25 c0 -6 -9 -29 -19 -53 -11 -23 -27 -61 -37 -84 l-18 -42 -439 -3 -439
-3 -24 -28 c-26 -30 -32 -83 -14 -117 23 -43 38 -45 442 -50 l387 -5 -150
-354 c-136 -319 -150 -357 -142 -389 18 -74 108 -100 164 -46 16 15 29 32 29
37 0 5 6 23 14 40 8 18 65 151 126 297 61 146 118 279 125 295 7 17 23 51 34
78 l20 47 322 0 321 0 -63 -72 c-35 -40 -68 -77 -73 -83 -6 -5 -29 -32 -51
-60 -22 -27 -47 -57 -55 -66 -8 -8 -35 -39 -60 -69 -25 -29 -49 -58 -55 -64
-5 -6 -35 -40 -65 -76 -30 -36 -67 -78 -81 -95 -15 -16 -86 -100 -159 -185
-72 -85 -142 -166 -153 -180 -12 -14 -74 -86 -137 -160 -63 -74 -117 -137
-120 -140 -3 -3 -33 -37 -67 -77 l-61 -72 -34 41 c-18 23 -38 46 -44 52 -6 6
-68 79 -138 161 -70 83 -138 161 -150 175 -11 14 -62 72 -111 130 -50 58 -102
118 -116 135 -15 16 -125 145 -244 285 -120 140 -229 269 -244 285 -14 17 -42
48 -61 70 -19 22 -53 62 -75 89 -22 27 -45 54 -50 60 -6 6 -35 40 -65 76 -30
36 -57 67 -60 70 -15 14 -130 151 -130 155 0 3 455 5 1010 5 674 0 1010 -3
1010 -10z m1030 5 c0 -2 -8 -12 -18 -22 -10 -10 -40 -45 -68 -78 -27 -33 -56
-65 -64 -72 -18 -15 -730 -19 -730 -4 0 5 12 35 26 67 14 33 31 71 37 87 l12
27 402 0 c222 0 403 -2 403 -5z m-3073 -287 l40 -46 0 -226 0 -226 -46 6 c-62
9 -184 49 -255 85 -72 37 -146 87 -146 99 0 11 352 361 360 358 4 -2 25 -24
47 -50z m341 -395 c28 -34 52 -66 52 -71 0 -10 -138 -37 -146 -29 -5 4 -8 131
-5 192 1 22 -1 25 99 -92z m1333 -2670 l131 -88 -131 -3 c-72 -1 -190 -1 -263
0 l-132 3 129 87 c72 48 131 87 132 87 2 1 62 -38 134 -86z"/>
<path d="M1908 3444 c-34 -18 -48 -43 -48 -84 0 -42 15 -67 50 -85 43 -22 76
-18 111 13 22 20 32 38 34 66 3 34 -1 44 -30 73 -37 37 -72 42 -117 17z"/>
</g>
</svg>
